<?xml version="1.0" encoding="utf-8"?>
<!-- Generator: Adobe Illustrator 22.0.1, SVG Export Plug-In . SVG Version: 6.00 Build 0)  -->
<svg version="1.1" id="レイヤー_1" xmlns="http://www.w3.org/2000/svg" xmlns:xlink="http://www.w3.org/1999/xlink" x="0px"
	 y="0px" viewBox="0 0 486.7 109" style="enable-background:new 0 0 486.7 109;" xml:space="preserve">
<style type="text/css">
	.st0{fill:#4D4D4D;}
	.st1{fill:#FFFFFF;}
	.st2{fill:#3D8499;}
	.st3{fill:#3D4899;}
	.st4{fill:#CC8D29;}
	.st5{fill:#DD72B9;}
	.st6{fill:#F4BD4D;}
	.st7{fill:#66C5D6;}
	.st8{fill:#5071E6;}
	.st9{fill:#B3369C;}
	.st10{filter:url(#Adobe_OpacityMaskFilter);}
	.st11{fill:url(#SVGID_2_);}
	.st12{mask:url(#SVGID_1_);fill:#C39743;}
	.st13{filter:url(#Adobe_OpacityMaskFilter_1_);}
	.st14{fill:url(#SVGID_4_);}
	.st15{mask:url(#SVGID_3_);fill:#C3973E;}
	.st16{filter:url(#Adobe_OpacityMaskFilter_2_);}
	.st17{fill:url(#SVGID_6_);}
	.st18{mask:url(#SVGID_5_);fill:#529EAB;}
	.st19{filter:url(#Adobe_OpacityMaskFilter_3_);}
	.st20{fill:url(#SVGID_8_);}
	.st21{mask:url(#SVGID_7_);fill:#529EAB;}
	.st22{filter:url(#Adobe_OpacityMaskFilter_4_);}
	.st23{fill:url(#SVGID_10_);}
	.st24{mask:url(#SVGID_9_);fill:#405AB8;}
	.st25{filter:url(#Adobe_OpacityMaskFilter_5_);}
	.st26{fill:url(#SVGID_12_);}
	.st27{mask:url(#SVGID_11_);fill:#405AB8;}
	.st28{filter:url(#Adobe_OpacityMaskFilter_6_);}
	.st29{fill:url(#SVGID_14_);}
	.st30{mask:url(#SVGID_13_);fill:#B15B94;}
	.st31{filter:url(#Adobe_OpacityMaskFilter_7_);}
	.st32{fill:url(#SVGID_16_);}
	.st33{mask:url(#SVGID_15_);fill:#B15B94;}
	.st34{filter:url(#Adobe_OpacityMaskFilter_8_);}
	.st35{fill:url(#SVGID_18_);}
	.st36{mask:url(#SVGID_17_);fill:#C39743;}
	.st37{filter:url(#Adobe_OpacityMaskFilter_9_);}
	.st38{fill:url(#SVGID_20_);}
	.st39{mask:url(#SVGID_19_);fill:#C3973E;}
	.st40{filter:url(#Adobe_OpacityMaskFilter_10_);}
	.st41{fill:url(#SVGID_22_);}
	.st42{mask:url(#SVGID_21_);fill:#529EAB;}
	.st43{filter:url(#Adobe_OpacityMaskFilter_11_);}
	.st44{fill:url(#SVGID_24_);}
	.st45{mask:url(#SVGID_23_);fill:#529EAB;}
	.st46{filter:url(#Adobe_OpacityMaskFilter_12_);}
	.st47{fill:url(#SVGID_26_);}
	.st48{mask:url(#SVGID_25_);fill:#405AB8;}
	.st49{filter:url(#Adobe_OpacityMaskFilter_13_);}
	.st50{fill:url(#SVGID_28_);}
	.st51{mask:url(#SVGID_27_);fill:#405AB8;}
	.st52{filter:url(#Adobe_OpacityMaskFilter_14_);}
	.st53{fill:url(#SVGID_30_);}
	.st54{mask:url(#SVGID_29_);fill:#B15B94;}
	.st55{filter:url(#Adobe_OpacityMaskFilter_15_);}
	.st56{fill:url(#SVGID_32_);}
	.st57{mask:url(#SVGID_31_);fill:#B15B94;}
	.st58{filter:url(#Adobe_OpacityMaskFilter_16_);}
	.st59{fill:url(#SVGID_34_);}
	.st60{mask:url(#SVGID_33_);fill:#8F2B7D;}
	.st61{filter:url(#Adobe_OpacityMaskFilter_17_);}
	.st62{fill:url(#SVGID_36_);}
	.st63{mask:url(#SVGID_35_);fill:#8F2B7D;}
	.st64{filter:url(#Adobe_OpacityMaskFilter_18_);}
	.st65{fill:url(#SVGID_38_);}
	.st66{mask:url(#SVGID_37_);fill:#A37121;}
	.st67{filter:url(#Adobe_OpacityMaskFilter_19_);}
	.st68{fill:url(#SVGID_40_);}
	.st69{mask:url(#SVGID_39_);fill:#A37121;}
	.st70{filter:url(#Adobe_OpacityMaskFilter_20_);}
	.st71{fill:url(#SVGID_42_);}
	.st72{mask:url(#SVGID_41_);fill:#316A7A;}
	.st73{filter:url(#Adobe_OpacityMaskFilter_21_);}
	.st74{fill:url(#SVGID_44_);}
	.st75{mask:url(#SVGID_43_);fill:#316A7A;}
	.st76{filter:url(#Adobe_OpacityMaskFilter_22_);}
	.st77{fill:url(#SVGID_46_);}
	.st78{mask:url(#SVGID_45_);fill:#313A7A;}
	.st79{filter:url(#Adobe_OpacityMaskFilter_23_);}
	.st80{fill:url(#SVGID_48_);}
	.st81{mask:url(#SVGID_47_);fill:#313A7A;}
	.st82{filter:url(#Adobe_OpacityMaskFilter_24_);}
	.st83{fill:url(#SVGID_50_);}
	.st84{mask:url(#SVGID_49_);fill:#316A7A;}
	.st85{filter:url(#Adobe_OpacityMaskFilter_25_);}
	.st86{fill:url(#SVGID_52_);}
	.st87{mask:url(#SVGID_51_);fill:#316A7A;}
	.st88{filter:url(#Adobe_OpacityMaskFilter_26_);}
	.st89{fill:url(#SVGID_54_);}
	.st90{mask:url(#SVGID_53_);fill:#313A7A;}
	.st91{filter:url(#Adobe_OpacityMaskFilter_27_);}
	.st92{fill:url(#SVGID_56_);}
	.st93{mask:url(#SVGID_55_);fill:#313A7A;}
	.st94{filter:url(#Adobe_OpacityMaskFilter_28_);}
	.st95{fill:url(#SVGID_58_);}
	.st96{mask:url(#SVGID_57_);fill:#8F2B7D;}
	.st97{filter:url(#Adobe_OpacityMaskFilter_29_);}
	.st98{fill:url(#SVGID_60_);}
	.st99{mask:url(#SVGID_59_);fill:#8F2B7D;}
	.st100{filter:url(#Adobe_OpacityMaskFilter_30_);}
	.st101{fill:url(#SVGID_62_);}
	.st102{mask:url(#SVGID_61_);fill:#A37121;}
	.st103{filter:url(#Adobe_OpacityMaskFilter_31_);}
	.st104{fill:url(#SVGID_64_);}
	.st105{mask:url(#SVGID_63_);fill:#A37121;}
</style>
<g>
	<g>
		<g>
			<g>
				<path class="st0" d="M119.6,44.6c-2.8-2.9-6.7-4.7-10.7-4.7c-7.9,0-14.2,6.8-14.2,14.6c0,7.8,6.4,14.6,14.3,14.6
					c4,0,7.9-1.9,10.7-4.7v4.9c-3,2.2-6.8,3.5-10.5,3.5c-10,0-18.4-8.1-18.4-18.1c0-10.1,8.3-18.4,18.4-18.4c3.9,0,7.4,1.1,10.5,3.5
					V44.6z"/>
			</g>
			<g>
				<path class="st0" d="M147.9,72.1h-3.7v-3h-0.1c-1.9,2.4-4.5,3.6-7.6,3.6c-6.4,0-10.5-5.5-10.5-11.5c0-6.3,4-11.6,10.6-11.6
					c3,0,5.7,1.4,7.5,3.7h0.1v-3.1h3.7V72.1z M129.8,60.9c0,4.3,2.5,8.4,7.2,8.4c4.8,0,7.3-3.9,7.3-8.3c0-4.4-2.8-7.9-7.4-7.9
					C132.6,53,129.8,56.8,129.8,60.9z"/>
			</g>
			<g>
				<path class="st0" d="M159.8,52.8L159.8,52.8c1.6-2.1,3.6-3.3,6.4-3.3c6.1,0,7.5,4.4,7.5,9.5v13h-3.7V59.7c0-3.6-0.3-6.7-4.6-6.7
					c-5.1,0-5.5,4.8-5.5,8.7v10.4H156v-22h3.7V52.8z"/>
			</g>
			<g>
				<path class="st0" d="M189.2,64.9l6.5-14.8h4.2l-10.7,23.4l-10.8-23.4h4.3L189.2,64.9z"/>
			</g>
			<g>
				<path class="st0" d="M225.1,72.1h-3.7v-3h-0.1c-1.9,2.4-4.5,3.6-7.6,3.6c-6.4,0-10.5-5.5-10.5-11.5c0-6.3,4-11.6,10.6-11.6
					c3,0,5.7,1.4,7.5,3.7h0.1v-3.1h3.7V72.1z M207,60.9c0,4.3,2.5,8.4,7.2,8.4c4.8,0,7.3-3.9,7.3-8.3c0-4.4-2.8-7.9-7.4-7.9
					C209.8,53,207,56.8,207,60.9z"/>
			</g>
			<g>
				<path class="st0" d="M242.3,55.3c-0.5-1.2-1.6-2.2-3-2.2c-1.3,0-2.7,1-2.7,2.4c0,2,2.5,2.8,5.1,3.8c2.6,1.1,5.1,2.6,5.1,6.3
					c0,4.2-3.4,7.2-7.4,7.2c-3.7,0-6.6-2.1-7.8-5.6l3.3-1.4c0.9,2.1,2,3.5,4.5,3.5c2,0,3.6-1.4,3.6-3.4c0-4.9-9.9-3.2-9.9-10.1
					c0-3.7,3-6.2,6.5-6.2c2.5,0,4.9,1.8,5.8,4.1L242.3,55.3z"/>
			</g>
			<g>
				<path class="st0" d="M261.5,62.9l11-27.8l11,27.8l8.8-26h4.3l-13.1,37.1l-11-28.4l-11,28.4l-13.1-37.1h4.3L261.5,62.9z"/>
			</g>
			<g>
				<path class="st0" d="M296.7,61.2c0-6.4,5.1-11.6,11.5-11.6c6.5,0,11.5,5.2,11.5,11.6c0,6.5-5.1,11.5-11.5,11.5
					C301.9,72.7,296.7,67.6,296.7,61.2z M300.5,61.1c0,4.5,3.2,8.1,7.8,8.1c4.6,0,7.8-3.6,7.8-8.1c0-4.4-3.2-8.1-7.8-8.1
					C303.6,53,300.5,56.7,300.5,61.1z"/>
			</g>
			<g>
				<path class="st0" d="M330,52.5L330,52.5c1.4-1.7,2.5-3,5-3c1.3,0,2.3,0.4,3.4,1v3.7c-1.4-0.9-2.6-1.2-4-1.2
					c-4.1,0-4.3,5.3-4.3,8.1v11h-3.7v-22h3.7V52.5z"/>
			</g>
			<g>
				<path class="st0" d="M347.9,58.3l8-8.1h5l-9.4,9.3l11.2,12.6h-5l-8.8-10l-1,1v9h-3.7V36.9h3.7V58.3z"/>
			</g>
			<g>
				<path class="st0" d="M376.1,55.3c-0.5-1.2-1.6-2.2-3-2.2c-1.3,0-2.7,1-2.7,2.4c0,2,2.5,2.8,5.1,3.8c2.6,1.1,5.1,2.6,5.1,6.3
					c0,4.2-3.4,7.2-7.4,7.2c-3.7,0-6.6-2.1-7.8-5.6l3.3-1.4c0.9,2.1,2,3.5,4.5,3.5c2,0,3.6-1.4,3.6-3.4c0-4.9-9.9-3.2-9.9-10.1
					c0-3.7,3-6.2,6.5-6.2c2.5,0,4.9,1.8,5.8,4.1L376.1,55.3z"/>
			</g>
			<g>
				<path class="st0" d="M390.8,53.3L390.8,53.3c1.9-2.4,4.6-3.7,7.7-3.7c6.4,0,10.5,5.6,10.5,11.6c0,6.3-4,11.5-10.6,11.5
					c-3,0-5.7-1.3-7.5-3.7h-0.1v15.4h-3.7V50.2h3.7V53.3z M390.7,60.9c0,4.3,2.5,8.4,7.2,8.4c4.8,0,7.3-3.9,7.3-8.3
					c0-4.4-2.8-7.9-7.4-7.9C393.5,53,390.7,56.8,390.7,60.9z"/>
			</g>
			<g>
				<path class="st0" d="M435.5,72.1h-3.7v-3h-0.1c-1.9,2.4-4.5,3.6-7.6,3.6c-6.5,0-10.5-5.5-10.5-11.5c0-6.3,4-11.6,10.6-11.6
					c3,0,5.7,1.4,7.5,3.7h0.1v-3.1h3.7V72.1z M417.4,60.9c0,4.3,2.5,8.4,7.2,8.4c4.8,0,7.3-3.9,7.3-8.3c0-4.4-2.8-7.9-7.4-7.9
					C420.2,53,417.4,56.8,417.4,60.9z"/>
			</g>
			<g>
				<path class="st0" d="M459.9,56.7L459.9,56.7c-1.8-2.2-4-3.7-6.9-3.7c-4.5,0-7.8,3.7-7.8,8.1c0,4.3,3,8.1,7.6,8.1
					c3.1,0,5.3-1.4,7.2-3.8h0.1v5c-2.2,1.5-4.3,2.2-7,2.2c-6.6,0-11.7-5-11.7-11.6c0-6.5,5.3-11.6,11.7-11.6c2.4,0,4.8,0.8,6.8,2.2
					V56.7z"/>
			</g>
			<g>
				<path class="st0" d="M469.4,61.9c0,4.1,2.9,7.3,7.2,7.3c3.2,0,5.2-1.9,6.7-4.5l3.2,1.8c-2.1,3.9-5.7,6.2-10.1,6.2
					c-6.5,0-10.7-5-10.7-11.3c0-6.5,3.8-11.9,10.7-11.9c7.1,0,10.8,5.8,10.4,12.4H469.4z M482.8,58.8c-0.5-3.2-3.2-5.8-6.5-5.8
					c-3.2,0-6.2,2.6-6.7,5.8H482.8z"/>
			</g>
		</g>
	</g>
	<g>
		<g>
			<path class="st1" d="M56.6,87.6l4.1-9.9l9.9-4.1c3.6-1.5,5.3-5.7,3.8-9.3l-4.1-9.9l4.1-9.9c1.5-3.6-0.2-7.8-3.8-9.3l-9.9-4.1
				l-4.1-9.9c-1.5-3.6-5.7-5.3-9.3-3.8l-9.9,4.1l-9.9-4.1c-3.6-1.5-7.8,0.2-9.3,3.8l-4.1,9.9l-9.9,4.1C0.8,36.8-1,41,0.5,44.6
				l4.1,9.9l-4.1,9.9C-1,68,0.8,72.1,4.4,73.6l9.9,4.1l4.1,9.9c1.5,3.6,5.7,5.3,9.3,3.8l9.9-4.1l9.9,4.1
				C51,92.9,55.1,91.2,56.6,87.6"/>
		</g>
		<g>
			<path class="st2" d="M40.4,22.9l8-3.3c0.8-0.3,1.7-0.3,2.5-0.2L48.1,26L40.4,22.9z"/>
			<path class="st3" d="M57.8,78.9l-3.3,8c-0.4,0.8-0.9,1.4-1.6,1.9l-2.8-6.7L57.8,78.9z"/>
			<path class="st2" d="M34.6,86.2l-8,3.3c-0.8,0.3-1.7,0.3-2.5,0.2l2.8-6.7L34.6,86.2z"/>
			<path class="st3" d="M17.2,30.1l3.3-8c0.4-0.8,0.9-1.4,1.6-1.9l2.8,6.7L17.2,30.1z"/>
			<path class="st4" d="M61.9,34.2l8,3.3c0.8,0.4,1.4,0.9,1.9,1.6l-6.7,2.8L61.9,34.2z"/>
			<path class="st5" d="M35.5,52.5L3.2,39.1c0.5-0.8,1.3-1.4,2.2-1.8l20.3-8.4L35.5,52.5z"/>
			<path class="st6" d="M2.3,67.9c-0.2-0.9-0.1-1.9,0.3-2.8l8.4-20.3l23.6,9.8L2.3,67.9z"/>
			<path class="st7" d="M35.5,56.5L22.1,88.8c-0.8-0.5-1.4-1.3-1.8-2.2l-8.4-20.3L35.5,56.5z"/>
			<path class="st8" d="M50.9,89.7c-0.9,0.2-1.9,0.1-2.8-0.3l-20.3-8.4l9.8-23.6L50.9,89.7z"/>
			<path class="st9" d="M69.1,57.4l3.3,8c0.3,0.8,0.3,1.7,0.2,2.5l-6.7-2.8L69.1,57.4z"/>
			<path class="st5" d="M39.5,56.5l32.3,13.4c-0.5,0.8-1.3,1.4-2.2,1.8l-20.3,8.4L39.5,56.5z"/>
			<path class="st8" d="M24.1,19.3c0.9-0.2,1.9-0.1,2.8,0.3l20.3,8.4l-9.8,23.5L24.1,19.3z"/>
			<path class="st6" d="M72.6,41.1c0.2,0.9,0.1,1.9-0.3,2.8l-8.4,20.3l-23.6-9.8L72.6,41.1z"/>
			<path class="st7" d="M39.5,52.5l13.4-32.3c0.8,0.5,1.4,1.3,1.8,2.2l8.4,20.3L39.5,52.5z"/>
			<defs>
				<filter id="Adobe_OpacityMaskFilter" filterUnits="userSpaceOnUse" x="40.4" y="41.1" width="32.4" height="23.1">
					<feColorMatrix  type="matrix" values="1 0 0 0 0  0 1 0 0 0  0 0 1 0 0  0 0 0 1 0"/>
				</filter>
			</defs>
			<mask maskUnits="userSpaceOnUse" x="40.4" y="41.1" width="32.4" height="23.1" id="SVGID_1_">
				<g class="st10">
					
						<linearGradient id="SVGID_2_" gradientUnits="userSpaceOnUse" x1="432.0471" y1="94.0442" x2="432.0471" y2="69.3353" gradientTransform="matrix(-0.9239 -0.3827 0.3827 -0.9239 424.7705 288.7889)">
						<stop  offset="0" style="stop-color:#000000"/>
						<stop  offset="0.95" style="stop-color:#000000"/>
						<stop  offset="1" style="stop-color:#FFFFFF"/>
					</linearGradient>
					<path class="st11" d="M72.6,41.1c0.2,0.9,0.1,1.9-0.3,2.8l-8.4,20.3l-23.6-9.8L72.6,41.1z"/>
				</g>
			</mask>
			<path class="st12" d="M72.6,41.1c0.2,0.9,0.1,1.9-0.3,2.8l-8.4,20.3l-23.6-9.8L72.6,41.1z"/>
			<defs>
				<filter id="Adobe_OpacityMaskFilter_1_" filterUnits="userSpaceOnUse" x="40.4" y="41.1" width="32.4" height="23.1">
					<feColorMatrix  type="matrix" values="1 0 0 0 0  0 1 0 0 0  0 0 1 0 0  0 0 0 1 0"/>
				</filter>
			</defs>
			<mask maskUnits="userSpaceOnUse" x="40.4" y="41.1" width="32.4" height="23.1" id="SVGID_3_">
				<g class="st13">
					
						<linearGradient id="SVGID_4_" gradientUnits="userSpaceOnUse" x1="444.7928" y1="81.6897" x2="419.3015" y2="81.6897" gradientTransform="matrix(-0.9239 -0.3827 0.3827 -0.9239 424.7705 288.7889)">
						<stop  offset="0" style="stop-color:#000000"/>
						<stop  offset="0.975" style="stop-color:#000000"/>
						<stop  offset="1" style="stop-color:#FFFFFF"/>
					</linearGradient>
					<path class="st14" d="M72.6,41.1c0.2,0.9,0.1,1.9-0.3,2.8l-8.4,20.3l-23.6-9.8L72.6,41.1z"/>
				</g>
			</mask>
			<path class="st15" d="M72.6,41.1c0.2,0.9,0.1,1.9-0.3,2.8l-8.4,20.3l-23.6-9.8L72.6,41.1z"/>
			<defs>
				<filter id="Adobe_OpacityMaskFilter_2_" filterUnits="userSpaceOnUse" x="39.5" y="20.2" width="23.6" height="32.3">
					<feColorMatrix  type="matrix" values="1 0 0 0 0  0 1 0 0 0  0 0 1 0 0  0 0 0 1 0"/>
				</filter>
			</defs>
			<mask maskUnits="userSpaceOnUse" x="39.5" y="20.2" width="23.6" height="32.3" id="SVGID_5_">
				<g class="st16">
					
						<linearGradient id="SVGID_6_" gradientUnits="userSpaceOnUse" x1="478.9529" y1="-185.9867" x2="478.9529" y2="-210.6935" gradientTransform="matrix(-0.9239 0.3827 -0.3827 -0.9239 413.1679 -330.3594)">
						<stop  offset="0" style="stop-color:#000000"/>
						<stop  offset="0.95" style="stop-color:#000000"/>
						<stop  offset="1" style="stop-color:#FFFFFF"/>
					</linearGradient>
					<path class="st17" d="M52.9,20.2c0.8,0.5,1.4,1.3,1.8,2.2l8.4,20.3l-23.6,9.8L52.9,20.2z"/>
				</g>
			</mask>
			<path class="st18" d="M52.9,20.2c0.8,0.5,1.4,1.3,1.8,2.2l8.4,20.3l-23.6,9.8L52.9,20.2z"/>
			<defs>
				<filter id="Adobe_OpacityMaskFilter_3_" filterUnits="userSpaceOnUse" x="39.5" y="20.2" width="23.6" height="32.3">
					<feColorMatrix  type="matrix" values="1 0 0 0 0  0 1 0 0 0  0 0 1 0 0  0 0 0 1 0"/>
				</filter>
			</defs>
			<mask maskUnits="userSpaceOnUse" x="39.5" y="20.2" width="23.6" height="32.3" id="SVGID_7_">
				<g class="st19">
					
						<linearGradient id="SVGID_8_" gradientUnits="userSpaceOnUse" x1="491.6982" y1="-198.3401" x2="466.2077" y2="-198.3401" gradientTransform="matrix(-0.9239 0.3827 -0.3827 -0.9239 413.1679 -330.3594)">
						<stop  offset="0" style="stop-color:#000000"/>
						<stop  offset="0.975" style="stop-color:#000000"/>
						<stop  offset="1" style="stop-color:#FFFFFF"/>
					</linearGradient>
					<path class="st20" d="M52.9,20.2c0.8,0.5,1.4,1.3,1.8,2.2l8.4,20.3l-23.6,9.8L52.9,20.2z"/>
				</g>
			</mask>
			<path class="st21" d="M52.9,20.2c0.8,0.5,1.4,1.3,1.8,2.2l8.4,20.3l-23.6,9.8L52.9,20.2z"/>
			<defs>
				<filter id="Adobe_OpacityMaskFilter_4_" filterUnits="userSpaceOnUse" x="24.1" y="19.3" width="23.1" height="32.4">
					<feColorMatrix  type="matrix" values="1 0 0 0 0  0 1 0 0 0  0 0 1 0 0  0 0 0 1 0"/>
				</filter>
			</defs>
			<mask maskUnits="userSpaceOnUse" x="24.1" y="19.3" width="23.1" height="32.4" id="SVGID_9_">
				<g class="st22">
					
						<linearGradient id="SVGID_10_" gradientUnits="userSpaceOnUse" x1="710.4246" y1="-350.9542" x2="710.4246" y2="-375.6609" gradientTransform="matrix(-0.3827 0.9239 -0.9239 -0.3827 -32.8322 -760.2726)">
						<stop  offset="0" style="stop-color:#000000"/>
						<stop  offset="0.95" style="stop-color:#000000"/>
						<stop  offset="1" style="stop-color:#FFFFFF"/>
					</linearGradient>
					<path class="st23" d="M24.1,19.3c0.9-0.2,1.9-0.1,2.8,0.3l20.3,8.4l-9.8,23.6L24.1,19.3z"/>
				</g>
			</mask>
			<path class="st24" d="M24.1,19.3c0.9-0.2,1.9-0.1,2.8,0.3l20.3,8.4l-9.8,23.6L24.1,19.3z"/>
			<defs>
				<filter id="Adobe_OpacityMaskFilter_5_" filterUnits="userSpaceOnUse" x="24.1" y="19.3" width="23.1" height="32.4">
					<feColorMatrix  type="matrix" values="1 0 0 0 0  0 1 0 0 0  0 0 1 0 0  0 0 0 1 0"/>
				</filter>
			</defs>
			<mask maskUnits="userSpaceOnUse" x="24.1" y="19.3" width="23.1" height="32.4" id="SVGID_11_">
				<g class="st25">
					
						<linearGradient id="SVGID_12_" gradientUnits="userSpaceOnUse" x1="723.1703" y1="-363.3076" x2="697.6788" y2="-363.3076" gradientTransform="matrix(-0.3827 0.9239 -0.9239 -0.3827 -32.8322 -760.2726)">
						<stop  offset="0" style="stop-color:#000000"/>
						<stop  offset="0.975" style="stop-color:#000000"/>
						<stop  offset="1" style="stop-color:#FFFFFF"/>
					</linearGradient>
					<path class="st26" d="M24.1,19.3c0.9-0.2,1.9-0.1,2.8,0.3l20.3,8.4l-9.8,23.6L24.1,19.3z"/>
				</g>
			</mask>
			<path class="st27" d="M24.1,19.3c0.9-0.2,1.9-0.1,2.8,0.3l20.3,8.4l-9.8,23.6L24.1,19.3z"/>
			<defs>
				<filter id="Adobe_OpacityMaskFilter_6_" filterUnits="userSpaceOnUse" x="3.2" y="28.9" width="32.3" height="23.6">
					<feColorMatrix  type="matrix" values="1 0 0 0 0  0 1 0 0 0  0 0 1 0 0  0 0 0 1 0"/>
				</filter>
			</defs>
			<mask maskUnits="userSpaceOnUse" x="3.2" y="28.9" width="32.3" height="23.6" id="SVGID_13_">
				<g class="st28">
					
						<linearGradient id="SVGID_14_" gradientUnits="userSpaceOnUse" x1="990.4619" y1="-303.7904" x2="990.4619" y2="-328.4979" gradientTransform="matrix(0.3827 0.9239 -0.9239 0.3827 -651.9756 -748.6749)">
						<stop  offset="0" style="stop-color:#000000"/>
						<stop  offset="0.95" style="stop-color:#000000"/>
						<stop  offset="1" style="stop-color:#FFFFFF"/>
					</linearGradient>
					<path class="st29" d="M3.2,39.1c0.5-0.8,1.3-1.4,2.2-1.8l20.3-8.4l9.8,23.6L3.2,39.1z"/>
				</g>
			</mask>
			<path class="st30" d="M3.2,39.1c0.5-0.8,1.3-1.4,2.2-1.8l20.3-8.4l9.8,23.6L3.2,39.1z"/>
			<defs>
				<filter id="Adobe_OpacityMaskFilter_7_" filterUnits="userSpaceOnUse" x="3.2" y="28.9" width="32.3" height="23.6">
					<feColorMatrix  type="matrix" values="1 0 0 0 0  0 1 0 0 0  0 0 1 0 0  0 0 0 1 0"/>
				</filter>
			</defs>
			<mask maskUnits="userSpaceOnUse" x="3.2" y="28.9" width="32.3" height="23.6" id="SVGID_15_">
				<g class="st31">
					
						<linearGradient id="SVGID_16_" gradientUnits="userSpaceOnUse" x1="1003.2076" y1="-316.1444" x2="977.7161" y2="-316.1444" gradientTransform="matrix(0.3827 0.9239 -0.9239 0.3827 -651.9756 -748.6749)">
						<stop  offset="0" style="stop-color:#000000"/>
						<stop  offset="0.975" style="stop-color:#000000"/>
						<stop  offset="1" style="stop-color:#FFFFFF"/>
					</linearGradient>
					<path class="st32" d="M3.2,39.1c0.5-0.8,1.3-1.4,2.2-1.8l20.3-8.4l9.8,23.6L3.2,39.1z"/>
				</g>
			</mask>
			<path class="st33" d="M3.2,39.1c0.5-0.8,1.3-1.4,2.2-1.8l20.3-8.4l9.8,23.6L3.2,39.1z"/>
			<defs>
				<filter id="Adobe_OpacityMaskFilter_8_" filterUnits="userSpaceOnUse" x="2.2" y="44.7" width="32.4" height="23.1">
					<feColorMatrix  type="matrix" values="1 0 0 0 0  0 1 0 0 0  0 0 1 0 0  0 0 0 1 0"/>
				</filter>
			</defs>
			<mask maskUnits="userSpaceOnUse" x="2.2" y="44.7" width="32.4" height="23.1" id="SVGID_17_">
				<g class="st34">
					
						<linearGradient id="SVGID_18_" gradientUnits="userSpaceOnUse" x1="1155.4264" y1="-72.5715" x2="1155.4264" y2="-97.2815" gradientTransform="matrix(0.9239 0.3827 -0.3827 0.9239 -1081.8947 -302.6758)">
						<stop  offset="0" style="stop-color:#000000"/>
						<stop  offset="0.95" style="stop-color:#000000"/>
						<stop  offset="1" style="stop-color:#FFFFFF"/>
					</linearGradient>
					<path class="st35" d="M2.3,67.9c-0.2-0.9-0.1-1.9,0.3-2.8l8.4-20.3l23.6,9.8L2.3,67.9z"/>
				</g>
			</mask>
			<path class="st36" d="M2.3,67.9c-0.2-0.9-0.1-1.9,0.3-2.8l8.4-20.3l23.6,9.8L2.3,67.9z"/>
			<defs>
				<filter id="Adobe_OpacityMaskFilter_9_" filterUnits="userSpaceOnUse" x="2.2" y="44.7" width="32.4" height="23.1">
					<feColorMatrix  type="matrix" values="1 0 0 0 0  0 1 0 0 0  0 0 1 0 0  0 0 0 1 0"/>
				</filter>
			</defs>
			<mask maskUnits="userSpaceOnUse" x="2.2" y="44.7" width="32.4" height="23.1" id="SVGID_19_">
				<g class="st37">
					
						<linearGradient id="SVGID_20_" gradientUnits="userSpaceOnUse" x1="1168.1725" y1="-84.9265" x2="1142.6804" y2="-84.9265" gradientTransform="matrix(0.9239 0.3827 -0.3827 0.9239 -1081.8947 -302.6758)">
						<stop  offset="0" style="stop-color:#000000"/>
						<stop  offset="0.975" style="stop-color:#000000"/>
						<stop  offset="1" style="stop-color:#FFFFFF"/>
					</linearGradient>
					<path class="st38" d="M2.3,67.9c-0.2-0.9-0.1-1.9,0.3-2.8l8.4-20.3l23.6,9.8L2.3,67.9z"/>
				</g>
			</mask>
			<path class="st39" d="M2.3,67.9c-0.2-0.9-0.1-1.9,0.3-2.8l8.4-20.3l23.6,9.8L2.3,67.9z"/>
			<defs>
				<filter id="Adobe_OpacityMaskFilter_10_" filterUnits="userSpaceOnUse" x="11.9" y="56.5" width="23.6" height="32.3">
					<feColorMatrix  type="matrix" values="1 0 0 0 0  0 1 0 0 0  0 0 1 0 0  0 0 0 1 0"/>
				</filter>
			</defs>
			<mask maskUnits="userSpaceOnUse" x="11.9" y="56.5" width="23.6" height="32.3" id="SVGID_21_">
				<g class="st40">
					
						<linearGradient id="SVGID_22_" gradientUnits="userSpaceOnUse" x1="1108.2688" y1="207.7137" x2="1108.2688" y2="183.0054" gradientTransform="matrix(0.9239 -0.3827 0.3827 0.9239 -1070.2906 316.4743)">
						<stop  offset="0" style="stop-color:#000000"/>
						<stop  offset="0.95" style="stop-color:#000000"/>
						<stop  offset="1" style="stop-color:#FFFFFF"/>
					</linearGradient>
					<path class="st41" d="M22.1,88.8c-0.8-0.5-1.4-1.3-1.8-2.2l-8.4-20.3l23.6-9.8L22.1,88.8z"/>
				</g>
			</mask>
			<path class="st42" d="M22.1,88.8c-0.8-0.5-1.4-1.3-1.8-2.2l-8.4-20.3l23.6-9.8L22.1,88.8z"/>
			<defs>
				<filter id="Adobe_OpacityMaskFilter_11_" filterUnits="userSpaceOnUse" x="11.9" y="56.5" width="23.6" height="32.3">
					<feColorMatrix  type="matrix" values="1 0 0 0 0  0 1 0 0 0  0 0 1 0 0  0 0 0 1 0"/>
				</filter>
			</defs>
			<mask maskUnits="userSpaceOnUse" x="11.9" y="56.5" width="23.6" height="32.3" id="SVGID_23_">
				<g class="st43">
					
						<linearGradient id="SVGID_24_" gradientUnits="userSpaceOnUse" x1="1121.0148" y1="195.3595" x2="1095.5227" y2="195.3595" gradientTransform="matrix(0.9239 -0.3827 0.3827 0.9239 -1070.2906 316.4743)">
						<stop  offset="0" style="stop-color:#000000"/>
						<stop  offset="0.975" style="stop-color:#000000"/>
						<stop  offset="1" style="stop-color:#FFFFFF"/>
					</linearGradient>
					<path class="st44" d="M22.1,88.8c-0.8-0.5-1.4-1.3-1.8-2.2l-8.4-20.3l23.6-9.8L22.1,88.8z"/>
				</g>
			</mask>
			<path class="st45" d="M22.1,88.8c-0.8-0.5-1.4-1.3-1.8-2.2l-8.4-20.3l23.6-9.8L22.1,88.8z"/>
			<defs>
				<filter id="Adobe_OpacityMaskFilter_12_" filterUnits="userSpaceOnUse" x="27.7" y="57.4" width="23.1" height="32.4">
					<feColorMatrix  type="matrix" values="1 0 0 0 0  0 1 0 0 0  0 0 1 0 0  0 0 0 1 0"/>
				</filter>
			</defs>
			<mask maskUnits="userSpaceOnUse" x="27.7" y="57.4" width="23.1" height="32.4" id="SVGID_25_">
				<g class="st46">
					
						<linearGradient id="SVGID_26_" gradientUnits="userSpaceOnUse" x1="877.043" y1="372.4175" x2="877.043" y2="347.7098" gradientTransform="matrix(0.3827 -0.9239 0.9239 0.3827 -624.2866 746.3906)">
						<stop  offset="0" style="stop-color:#000000"/>
						<stop  offset="0.95" style="stop-color:#000000"/>
						<stop  offset="1" style="stop-color:#FFFFFF"/>
					</linearGradient>
					<path class="st47" d="M50.9,89.7c-0.9,0.2-1.9,0.1-2.8-0.3l-20.3-8.4l9.8-23.6L50.9,89.7z"/>
				</g>
			</mask>
			<path class="st48" d="M50.9,89.7c-0.9,0.2-1.9,0.1-2.8-0.3l-20.3-8.4l9.8-23.6L50.9,89.7z"/>
			<defs>
				<filter id="Adobe_OpacityMaskFilter_13_" filterUnits="userSpaceOnUse" x="27.7" y="57.4" width="23.1" height="32.4">
					<feColorMatrix  type="matrix" values="1 0 0 0 0  0 1 0 0 0  0 0 1 0 0  0 0 0 1 0"/>
				</filter>
			</defs>
			<mask maskUnits="userSpaceOnUse" x="27.7" y="57.4" width="23.1" height="32.4" id="SVGID_27_">
				<g class="st49">
					
						<linearGradient id="SVGID_28_" gradientUnits="userSpaceOnUse" x1="889.7886" y1="360.0637" x2="864.2973" y2="360.0637" gradientTransform="matrix(0.3827 -0.9239 0.9239 0.3827 -624.2866 746.3906)">
						<stop  offset="0" style="stop-color:#000000"/>
						<stop  offset="0.975" style="stop-color:#000000"/>
						<stop  offset="1" style="stop-color:#FFFFFF"/>
					</linearGradient>
					<path class="st50" d="M50.9,89.7c-0.9,0.2-1.9,0.1-2.8-0.3l-20.3-8.4l9.8-23.6L50.9,89.7z"/>
				</g>
			</mask>
			<path class="st51" d="M50.9,89.7c-0.9,0.2-1.9,0.1-2.8-0.3l-20.3-8.4l9.8-23.6L50.9,89.7z"/>
			<defs>
				<filter id="Adobe_OpacityMaskFilter_14_" filterUnits="userSpaceOnUse" x="39.5" y="56.5" width="32.3" height="23.6">
					<feColorMatrix  type="matrix" values="1 0 0 0 0  0 1 0 0 0  0 0 1 0 0  0 0 0 1 0"/>
				</filter>
			</defs>
			<mask maskUnits="userSpaceOnUse" x="39.5" y="56.5" width="32.3" height="23.6" id="SVGID_29_">
				<g class="st52">
					
						<linearGradient id="SVGID_30_" gradientUnits="userSpaceOnUse" x1="596.7614" y1="325.5209" x2="596.7614" y2="300.8134" gradientTransform="matrix(-0.3827 -0.9239 0.9239 -0.3827 -5.1446 734.7871)">
						<stop  offset="0" style="stop-color:#000000"/>
						<stop  offset="0.95" style="stop-color:#000000"/>
						<stop  offset="1" style="stop-color:#FFFFFF"/>
					</linearGradient>
					<path class="st53" d="M71.8,69.9c-0.5,0.8-1.3,1.4-2.2,1.8l-20.3,8.4l-9.8-23.6L71.8,69.9z"/>
				</g>
			</mask>
			<path class="st54" d="M71.8,69.9c-0.5,0.8-1.3,1.4-2.2,1.8l-20.3,8.4l-9.8-23.6L71.8,69.9z"/>
			<defs>
				<filter id="Adobe_OpacityMaskFilter_15_" filterUnits="userSpaceOnUse" x="39.5" y="56.5" width="32.3" height="23.6">
					<feColorMatrix  type="matrix" values="1 0 0 0 0  0 1 0 0 0  0 0 1 0 0  0 0 0 1 0"/>
				</filter>
			</defs>
			<mask maskUnits="userSpaceOnUse" x="39.5" y="56.5" width="32.3" height="23.6" id="SVGID_31_">
				<g class="st55">
					
						<linearGradient id="SVGID_32_" gradientUnits="userSpaceOnUse" x1="609.5083" y1="313.1671" x2="584.0159" y2="313.1671" gradientTransform="matrix(-0.3827 -0.9239 0.9239 -0.3827 -5.1446 734.7871)">
						<stop  offset="0" style="stop-color:#000000"/>
						<stop  offset="0.975" style="stop-color:#000000"/>
						<stop  offset="1" style="stop-color:#FFFFFF"/>
					</linearGradient>
					<path class="st56" d="M71.8,69.9c-0.5,0.8-1.3,1.4-2.2,1.8l-20.3,8.4l-9.8-23.6L71.8,69.9z"/>
				</g>
			</mask>
			<path class="st57" d="M71.8,69.9c-0.5,0.8-1.3,1.4-2.2,1.8l-20.3,8.4l-9.8-23.6L71.8,69.9z"/>
			<defs>
				<filter id="Adobe_OpacityMaskFilter_16_" filterUnits="userSpaceOnUse" x="65.9" y="57.4" width="6.8" height="10.5">
					<feColorMatrix  type="matrix" values="1 0 0 0 0  0 1 0 0 0  0 0 1 0 0  0 0 0 1 0"/>
				</filter>
			</defs>
			<mask maskUnits="userSpaceOnUse" x="65.9" y="57.4" width="6.8" height="10.5" id="SVGID_33_">
				<g class="st58">
					
						<linearGradient id="SVGID_34_" gradientUnits="userSpaceOnUse" x1="413.4745" y1="93.9809" x2="413.4745" y2="69.3441" gradientTransform="matrix(-0.9239 -0.3827 0.3827 -0.9239 424.7705 288.7889)">
						<stop  offset="0" style="stop-color:#000000"/>
						<stop  offset="0.95" style="stop-color:#000000"/>
						<stop  offset="1" style="stop-color:#FFFFFF"/>
					</linearGradient>
					<path class="st59" d="M69.1,57.4l3.3,8c0.3,0.8,0.3,1.7,0.2,2.5l-6.7-2.8L69.1,57.4z"/>
				</g>
			</mask>
			<path class="st60" d="M69.1,57.4l3.3,8c0.3,0.8,0.3,1.7,0.2,2.5l-6.7-2.8L69.1,57.4z"/>
			<defs>
				<filter id="Adobe_OpacityMaskFilter_17_" filterUnits="userSpaceOnUse" x="65.9" y="57.4" width="6.8" height="10.5">
					<feColorMatrix  type="matrix" values="1 0 0 0 0  0 1 0 0 0  0 0 1 0 0  0 0 0 1 0"/>
				</filter>
			</defs>
			<mask maskUnits="userSpaceOnUse" x="65.9" y="57.4" width="6.8" height="10.5" id="SVGID_35_">
				<g class="st61">
					
						<linearGradient id="SVGID_36_" gradientUnits="userSpaceOnUse" x1="391.6448" y1="73.5031" x2="417.0539" y2="73.5031" gradientTransform="matrix(-0.9239 -0.3827 0.3827 -0.9239 424.7705 288.7889)">
						<stop  offset="0" style="stop-color:#000000"/>
						<stop  offset="0.975" style="stop-color:#000000"/>
						<stop  offset="1" style="stop-color:#FFFFFF"/>
					</linearGradient>
					<path class="st62" d="M69.1,57.4l3.3,8c0.3,0.8,0.3,1.7,0.2,2.5l-6.7-2.8L69.1,57.4z"/>
				</g>
			</mask>
			<path class="st63" d="M69.1,57.4l3.3,8c0.3,0.8,0.3,1.7,0.2,2.5l-6.7-2.8L69.1,57.4z"/>
			<defs>
				<filter id="Adobe_OpacityMaskFilter_18_" filterUnits="userSpaceOnUse" x="61.9" y="34.2" width="9.9" height="7.7">
					<feColorMatrix  type="matrix" values="1 0 0 0 0  0 1 0 0 0  0 0 1 0 0  0 0 0 1 0"/>
				</filter>
			</defs>
			<mask maskUnits="userSpaceOnUse" x="61.9" y="34.2" width="9.9" height="7.7" id="SVGID_37_">
				<g class="st64">
					
						<linearGradient id="SVGID_38_" gradientUnits="userSpaceOnUse" x1="460.382" y1="-186.0528" x2="460.382" y2="-210.6848" gradientTransform="matrix(-0.9239 0.3827 -0.3827 -0.9239 413.1679 -330.3594)">
						<stop  offset="0" style="stop-color:#000000"/>
						<stop  offset="0.95" style="stop-color:#000000"/>
						<stop  offset="1" style="stop-color:#FFFFFF"/>
					</linearGradient>
					<path class="st65" d="M61.9,34.2l8,3.3c0.8,0.4,1.4,0.9,1.9,1.6l-6.7,2.8L61.9,34.2z"/>
				</g>
			</mask>
			<path class="st66" d="M61.9,34.2l8,3.3c0.8,0.4,1.4,0.9,1.9,1.6l-6.7,2.8L61.9,34.2z"/>
			<defs>
				<filter id="Adobe_OpacityMaskFilter_19_" filterUnits="userSpaceOnUse" x="61.9" y="34.2" width="9.9" height="7.7">
					<feColorMatrix  type="matrix" values="1 0 0 0 0  0 1 0 0 0  0 0 1 0 0  0 0 0 1 0"/>
				</filter>
			</defs>
			<mask maskUnits="userSpaceOnUse" x="61.9" y="34.2" width="9.9" height="7.7" id="SVGID_39_">
				<g class="st67">
					
						<linearGradient id="SVGID_40_" gradientUnits="userSpaceOnUse" x1="438.5595" y1="-206.5266" x2="463.9603" y2="-206.5266" gradientTransform="matrix(-0.9239 0.3827 -0.3827 -0.9239 413.1679 -330.3594)">
						<stop  offset="0" style="stop-color:#000000"/>
						<stop  offset="0.975" style="stop-color:#000000"/>
						<stop  offset="1" style="stop-color:#FFFFFF"/>
					</linearGradient>
					<path class="st68" d="M61.9,34.2l8,3.3c0.8,0.4,1.4,0.9,1.9,1.6l-6.7,2.8L61.9,34.2z"/>
				</g>
			</mask>
			<path class="st69" d="M61.9,34.2l8,3.3c0.8,0.4,1.4,0.9,1.9,1.6l-6.7,2.8L61.9,34.2z"/>
			<defs>
				<filter id="Adobe_OpacityMaskFilter_20_" filterUnits="userSpaceOnUse" x="40.4" y="19.3" width="10.5" height="6.8">
					<feColorMatrix  type="matrix" values="1 0 0 0 0  0 1 0 0 0  0 0 1 0 0  0 0 0 1 0"/>
				</filter>
			</defs>
			<mask maskUnits="userSpaceOnUse" x="40.4" y="19.3" width="10.5" height="6.8" id="SVGID_41_">
				<g class="st70">
					
						<linearGradient id="SVGID_42_" gradientUnits="userSpaceOnUse" x1="691.8489" y1="-351.0182" x2="691.8489" y2="-375.6542" gradientTransform="matrix(-0.3827 0.9239 -0.9239 -0.3827 -32.8342 -760.2682)">
						<stop  offset="0" style="stop-color:#000000"/>
						<stop  offset="0.95" style="stop-color:#000000"/>
						<stop  offset="1" style="stop-color:#FFFFFF"/>
					</linearGradient>
					<path class="st71" d="M40.4,22.9l8-3.3c0.8-0.3,1.7-0.3,2.5-0.2L48.1,26L40.4,22.9z"/>
				</g>
			</mask>
			<path class="st72" d="M40.4,22.9l8-3.3c0.8-0.3,1.7-0.3,2.5-0.2L48.1,26L40.4,22.9z"/>
			<defs>
				<filter id="Adobe_OpacityMaskFilter_21_" filterUnits="userSpaceOnUse" x="40.4" y="19.3" width="10.5" height="6.8">
					<feColorMatrix  type="matrix" values="1 0 0 0 0  0 1 0 0 0  0 0 1 0 0  0 0 0 1 0"/>
				</filter>
			</defs>
			<mask maskUnits="userSpaceOnUse" x="40.4" y="19.3" width="10.5" height="6.8" id="SVGID_43_">
				<g class="st73">
					
						<linearGradient id="SVGID_44_" gradientUnits="userSpaceOnUse" x1="670.0322" y1="-371.4874" x2="695.4309" y2="-371.4874" gradientTransform="matrix(-0.3827 0.9239 -0.9239 -0.3827 -32.8244 -760.2687)">
						<stop  offset="0" style="stop-color:#000000"/>
						<stop  offset="0.975" style="stop-color:#000000"/>
						<stop  offset="1" style="stop-color:#FFFFFF"/>
					</linearGradient>
					<path class="st74" d="M40.4,22.9l8-3.3c0.8-0.3,1.7-0.3,2.5-0.2L48.1,26L40.4,22.9z"/>
				</g>
			</mask>
			<path class="st75" d="M40.4,22.9l8-3.3c0.8-0.3,1.7-0.3,2.5-0.2L48.1,26L40.4,22.9z"/>
			<defs>
				<filter id="Adobe_OpacityMaskFilter_22_" filterUnits="userSpaceOnUse" x="17.2" y="20.2" width="7.7" height="9.9">
					<feColorMatrix  type="matrix" values="1 0 0 0 0  0 1 0 0 0  0 0 1 0 0  0 0 0 1 0"/>
				</filter>
			</defs>
			<mask maskUnits="userSpaceOnUse" x="17.2" y="20.2" width="7.7" height="9.9" id="SVGID_45_">
				<g class="st76">
					
						<linearGradient id="SVGID_46_" gradientUnits="userSpaceOnUse" x1="971.8818" y1="-303.8569" x2="971.8818" y2="-328.4896" gradientTransform="matrix(0.3827 0.9239 -0.9239 0.3827 -651.9756 -748.6749)">
						<stop  offset="0" style="stop-color:#000000"/>
						<stop  offset="0.95" style="stop-color:#000000"/>
						<stop  offset="1" style="stop-color:#FFFFFF"/>
					</linearGradient>
					<path class="st77" d="M17.2,30.1l3.3-8c0.4-0.8,0.9-1.4,1.6-1.9l2.8,6.7L17.2,30.1z"/>
				</g>
			</mask>
			<path class="st78" d="M17.2,30.1l3.3-8c0.4-0.8,0.9-1.4,1.6-1.9l2.8,6.7L17.2,30.1z"/>
			<defs>
				<filter id="Adobe_OpacityMaskFilter_23_" filterUnits="userSpaceOnUse" x="17.2" y="20.2" width="7.7" height="9.9">
					<feColorMatrix  type="matrix" values="1 0 0 0 0  0 1 0 0 0  0 0 1 0 0  0 0 0 1 0"/>
				</filter>
			</defs>
			<mask maskUnits="userSpaceOnUse" x="17.2" y="20.2" width="7.7" height="9.9" id="SVGID_47_">
				<g class="st79">
					
						<linearGradient id="SVGID_48_" gradientUnits="userSpaceOnUse" x1="950.0616" y1="-324.3314" x2="975.4598" y2="-324.3314" gradientTransform="matrix(0.3827 0.9239 -0.9239 0.3827 -651.9756 -748.6749)">
						<stop  offset="0" style="stop-color:#000000"/>
						<stop  offset="0.975" style="stop-color:#000000"/>
						<stop  offset="1" style="stop-color:#FFFFFF"/>
					</linearGradient>
					<path class="st80" d="M17.2,30.1l3.3-8c0.4-0.8,0.9-1.4,1.6-1.9l2.8,6.7L17.2,30.1z"/>
				</g>
			</mask>
			<path class="st81" d="M17.2,30.1l3.3-8c0.4-0.8,0.9-1.4,1.6-1.9l2.8,6.7L17.2,30.1z"/>
			<defs>
				<filter id="Adobe_OpacityMaskFilter_24_" filterUnits="userSpaceOnUse" x="24.1" y="83" width="10.5" height="6.8">
					<feColorMatrix  type="matrix" values="1 0 0 0 0  0 1 0 0 0  0 0 1 0 0  0 0 0 1 0"/>
				</filter>
			</defs>
			<mask maskUnits="userSpaceOnUse" x="24.1" y="83" width="10.5" height="6.8" id="SVGID_49_">
				<g class="st82">
					
						<linearGradient id="SVGID_50_" gradientUnits="userSpaceOnUse" x1="858.4711" y1="372.3528" x2="858.4711" y2="347.7189" gradientTransform="matrix(0.3827 -0.9239 0.9239 0.3827 -624.2866 746.3906)">
						<stop  offset="0" style="stop-color:#000000"/>
						<stop  offset="0.95" style="stop-color:#000000"/>
						<stop  offset="1" style="stop-color:#FFFFFF"/>
					</linearGradient>
					<path class="st83" d="M34.6,86.2l-8,3.3c-0.8,0.3-1.7,0.3-2.5,0.2l2.8-6.7L34.6,86.2z"/>
				</g>
			</mask>
			<path class="st84" d="M34.6,86.2l-8,3.3c-0.8,0.3-1.7,0.3-2.5,0.2l2.8-6.7L34.6,86.2z"/>
			<defs>
				<filter id="Adobe_OpacityMaskFilter_25_" filterUnits="userSpaceOnUse" x="24.1" y="83" width="10.5" height="6.8">
					<feColorMatrix  type="matrix" values="1 0 0 0 0  0 1 0 0 0  0 0 1 0 0  0 0 0 1 0"/>
				</filter>
			</defs>
			<mask maskUnits="userSpaceOnUse" x="24.1" y="83" width="10.5" height="6.8" id="SVGID_51_">
				<g class="st85">
					
						<linearGradient id="SVGID_52_" gradientUnits="userSpaceOnUse" x1="836.6477" y1="351.8774" x2="862.0495" y2="351.8774" gradientTransform="matrix(0.3827 -0.9239 0.9239 0.3827 -624.2866 746.3906)">
						<stop  offset="0" style="stop-color:#000000"/>
						<stop  offset="0.975" style="stop-color:#000000"/>
						<stop  offset="1" style="stop-color:#FFFFFF"/>
					</linearGradient>
					<path class="st86" d="M34.6,86.2l-8,3.3c-0.8,0.3-1.7,0.3-2.5,0.2l2.8-6.7L34.6,86.2z"/>
				</g>
			</mask>
			<path class="st87" d="M34.6,86.2l-8,3.3c-0.8,0.3-1.7,0.3-2.5,0.2l2.8-6.7L34.6,86.2z"/>
			<defs>
				<filter id="Adobe_OpacityMaskFilter_26_" filterUnits="userSpaceOnUse" x="50.1" y="78.9" width="7.7" height="9.9">
					<feColorMatrix  type="matrix" values="1 0 0 0 0  0 1 0 0 0  0 0 1 0 0  0 0 0 1 0"/>
				</filter>
			</defs>
			<mask maskUnits="userSpaceOnUse" x="50.1" y="78.9" width="7.7" height="9.9" id="SVGID_53_">
				<g class="st88">
					
						<linearGradient id="SVGID_54_" gradientUnits="userSpaceOnUse" x1="578.1903" y1="325.4543" x2="578.1903" y2="300.8221" gradientTransform="matrix(-0.3827 -0.9239 0.9239 -0.3827 -5.1446 734.7871)">
						<stop  offset="0" style="stop-color:#000000"/>
						<stop  offset="0.95" style="stop-color:#000000"/>
						<stop  offset="1" style="stop-color:#FFFFFF"/>
					</linearGradient>
					<path class="st89" d="M57.8,78.9l-3.3,8c-0.4,0.8-0.9,1.4-1.6,1.9l-2.8-6.7L57.8,78.9z"/>
				</g>
			</mask>
			<path class="st90" d="M57.8,78.9l-3.3,8c-0.4,0.8-0.9,1.4-1.6,1.9l-2.8-6.7L57.8,78.9z"/>
			<defs>
				<filter id="Adobe_OpacityMaskFilter_27_" filterUnits="userSpaceOnUse" x="50.1" y="78.9" width="7.7" height="9.9">
					<feColorMatrix  type="matrix" values="1 0 0 0 0  0 1 0 0 0  0 0 1 0 0  0 0 0 1 0"/>
				</filter>
			</defs>
			<mask maskUnits="userSpaceOnUse" x="50.1" y="78.9" width="7.7" height="9.9" id="SVGID_55_">
				<g class="st91">
					
						<linearGradient id="SVGID_56_" gradientUnits="userSpaceOnUse" x1="556.3695" y1="304.9803" x2="581.7682" y2="304.9803" gradientTransform="matrix(-0.3827 -0.9239 0.9239 -0.3827 -5.1446 734.7871)">
						<stop  offset="0" style="stop-color:#000000"/>
						<stop  offset="0.975" style="stop-color:#000000"/>
						<stop  offset="1" style="stop-color:#FFFFFF"/>
					</linearGradient>
					<path class="st92" d="M57.8,78.9l-3.3,8c-0.4,0.8-0.9,1.4-1.6,1.9l-2.8-6.7L57.8,78.9z"/>
				</g>
			</mask>
			<path class="st93" d="M57.8,78.9l-3.3,8c-0.4,0.8-0.9,1.4-1.6,1.9l-2.8-6.7L57.8,78.9z"/>
			<path class="st9" d="M5.8,51.6l-3.3-8c-0.3-0.8-0.3-1.7-0.2-2.5L9,43.9L5.8,51.6z"/>
			<defs>
				<filter id="Adobe_OpacityMaskFilter_28_" filterUnits="userSpaceOnUse" x="2.3" y="41.1" width="6.8" height="10.5">
					<feColorMatrix  type="matrix" values="1 0 0 0 0  0 1 0 0 0  0 0 1 0 0  0 0 0 1 0"/>
				</filter>
			</defs>
			<mask maskUnits="userSpaceOnUse" x="2.3" y="41.1" width="6.8" height="10.5" id="SVGID_57_">
				<g class="st94">
					
						<linearGradient id="SVGID_58_" gradientUnits="userSpaceOnUse" x1="1115.0264" y1="-93.1368" x2="1140.4312" y2="-93.1368" gradientTransform="matrix(0.9239 0.3827 -0.3827 0.9239 -1081.8947 -302.6758)">
						<stop  offset="0" style="stop-color:#000000"/>
						<stop  offset="0.975" style="stop-color:#000000"/>
						<stop  offset="1" style="stop-color:#FFFFFF"/>
					</linearGradient>
					<path class="st95" d="M5.8,51.6l-3.3-8c-0.3-0.8-0.3-1.7-0.2-2.5L9,43.9L5.8,51.6z"/>
				</g>
			</mask>
			<path class="st96" d="M5.8,51.6l-3.3-8c-0.3-0.8-0.3-1.7-0.2-2.5L9,43.9L5.8,51.6z"/>
			<defs>
				<filter id="Adobe_OpacityMaskFilter_29_" filterUnits="userSpaceOnUse" x="2.3" y="41.1" width="6.8" height="10.5">
					<feColorMatrix  type="matrix" values="1 0 0 0 0  0 1 0 0 0  0 0 1 0 0  0 0 0 1 0"/>
				</filter>
			</defs>
			<mask maskUnits="userSpaceOnUse" x="2.3" y="41.1" width="6.8" height="10.5" id="SVGID_59_">
				<g class="st97">
					
						<linearGradient id="SVGID_60_" gradientUnits="userSpaceOnUse" x1="1136.8523" y1="-72.6637" x2="1136.8523" y2="-97.2948" gradientTransform="matrix(0.9239 0.3827 -0.3827 0.9239 -1081.8947 -302.6758)">
						<stop  offset="0" style="stop-color:#000000"/>
						<stop  offset="0.95" style="stop-color:#000000"/>
						<stop  offset="1" style="stop-color:#FFFFFF"/>
					</linearGradient>
					<path class="st98" d="M5.8,51.6l-3.3-8c-0.3-0.8-0.3-1.7-0.2-2.5L9,43.9L5.8,51.6z"/>
				</g>
			</mask>
			<path class="st99" d="M5.8,51.6l-3.3-8c-0.3-0.8-0.3-1.7-0.2-2.5L9,43.9L5.8,51.6z"/>
			<path class="st4" d="M13.1,74.8l-8-3.3c-0.8-0.4-1.4-0.9-1.9-1.6l6.7-2.8L13.1,74.8z"/>
			<defs>
				<filter id="Adobe_OpacityMaskFilter_30_" filterUnits="userSpaceOnUse" x="3.2" y="67.1" width="9.9" height="7.7">
					<feColorMatrix  type="matrix" values="1 0 0 0 0  0 1 0 0 0  0 0 1 0 0  0 0 0 1 0"/>
				</filter>
			</defs>
			<mask maskUnits="userSpaceOnUse" x="3.2" y="67.1" width="9.9" height="7.7" id="SVGID_61_">
				<g class="st100">
					
						<linearGradient id="SVGID_62_" gradientUnits="userSpaceOnUse" x1="1067.88" y1="187.1514" x2="1093.2821" y2="187.1514" gradientTransform="matrix(0.9239 -0.3827 0.3827 0.9239 -1070.2906 316.4743)">
						<stop  offset="0" style="stop-color:#000000"/>
						<stop  offset="0.975" style="stop-color:#000000"/>
						<stop  offset="1" style="stop-color:#FFFFFF"/>
					</linearGradient>
					<path class="st101" d="M13.1,74.8l-8-3.3c-0.8-0.4-1.4-0.9-1.9-1.6l6.7-2.8L13.1,74.8z"/>
				</g>
			</mask>
			<path class="st102" d="M13.1,74.8l-8-3.3c-0.8-0.4-1.4-0.9-1.9-1.6l6.7-2.8L13.1,74.8z"/>
			<defs>
				<filter id="Adobe_OpacityMaskFilter_31_" filterUnits="userSpaceOnUse" x="3.2" y="67.1" width="9.9" height="7.7">
					<feColorMatrix  type="matrix" values="1 0 0 0 0  0 1 0 0 0  0 0 1 0 0  0 0 0 1 0"/>
				</filter>
			</defs>
			<mask maskUnits="userSpaceOnUse" x="3.2" y="67.1" width="9.9" height="7.7" id="SVGID_63_">
				<g class="st103">
					
						<linearGradient id="SVGID_64_" gradientUnits="userSpaceOnUse" x1="1089.7036" y1="207.6286" x2="1089.7036" y2="182.9926" gradientTransform="matrix(0.9239 -0.3827 0.3827 0.9239 -1070.2906 316.4743)">
						<stop  offset="0" style="stop-color:#000000"/>
						<stop  offset="0.95" style="stop-color:#000000"/>
						<stop  offset="1" style="stop-color:#FFFFFF"/>
					</linearGradient>
					<path class="st104" d="M13.1,74.8l-8-3.3c-0.8-0.4-1.4-0.9-1.9-1.6l6.7-2.8L13.1,74.8z"/>
				</g>
			</mask>
			<path class="st105" d="M13.1,74.8l-8-3.3c-0.8-0.4-1.4-0.9-1.9-1.6l6.7-2.8L13.1,74.8z"/>
		</g>
	</g>
</g>
</svg>
